<mxfile host="app.diagrams.net" modified="2020-10-17T10:46:40.137Z" agent="5.0 (Windows)" etag="8CPLlcmvTw-jqxF9EaTa" version="13.8.0" type="github">
  <diagram id="S9gofvraqiNgbIbu-OAV" name="Page-1">
    <mxGraphModel dx="868" dy="479" grid="1" gridSize="10" guides="1" tooltips="1" connect="1" arrows="1" fold="1" page="1" pageScale="1" pageWidth="850" pageHeight="1100" math="0" shadow="0">
      <root>
        <mxCell id="0" />
        <mxCell id="1" parent="0" />
        <mxCell id="KZY9slWV231hrfaIXA2l-7" style="edgeStyle=orthogonalEdgeStyle;rounded=0;orthogonalLoop=1;jettySize=auto;html=1;fillColor=#3333FF;" edge="1" parent="1" source="KZY9slWV231hrfaIXA2l-1">
          <mxGeometry relative="1" as="geometry">
            <mxPoint x="270" y="350" as="targetPoint" />
          </mxGeometry>
        </mxCell>
        <mxCell id="KZY9slWV231hrfaIXA2l-1" value="" style="rounded=0;whiteSpace=wrap;html=1;fillColor=#FFFF99;" vertex="1" parent="1">
          <mxGeometry x="370" y="120" width="220" height="460" as="geometry" />
        </mxCell>
        <mxCell id="KZY9slWV231hrfaIXA2l-2" value="&lt;div&gt;&lt;font style=&quot;font-size: 18px&quot;&gt;Build&lt;/font&gt;&lt;/div&gt;&lt;div&gt;&lt;font style=&quot;font-size: 18px&quot;&gt;Similarity&lt;/font&gt;&lt;/div&gt;&lt;div&gt;&lt;font style=&quot;font-size: 18px&quot;&gt;Matrix&lt;br&gt;&lt;/font&gt;&lt;/div&gt;" style="ellipse;whiteSpace=wrap;html=1;fillColor=#33FF33;" vertex="1" parent="1">
          <mxGeometry x="380" y="140" width="200" height="90" as="geometry" />
        </mxCell>
        <mxCell id="KZY9slWV231hrfaIXA2l-3" value="&lt;div&gt;&lt;font style=&quot;font-size: 18px&quot;&gt;Query to Context&lt;/font&gt;&lt;/div&gt;&lt;div&gt;&lt;font style=&quot;font-size: 18px&quot;&gt;Attention (Q2C)&lt;/font&gt;&lt;br&gt;&lt;/div&gt;" style="ellipse;whiteSpace=wrap;html=1;fillColor=#66FF66;" vertex="1" parent="1">
          <mxGeometry x="380" y="370" width="200" height="90" as="geometry" />
        </mxCell>
        <mxCell id="KZY9slWV231hrfaIXA2l-4" value="&lt;div&gt;&lt;font style=&quot;font-size: 18px&quot;&gt;Context to Query&lt;/font&gt;&lt;/div&gt;&lt;div&gt;&lt;font style=&quot;font-size: 18px&quot;&gt;Attention (C2Q)&lt;/font&gt;&lt;br&gt;&lt;/div&gt;" style="ellipse;whiteSpace=wrap;html=1;fillColor=#66FF66;" vertex="1" parent="1">
          <mxGeometry x="380" y="250" width="200" height="90" as="geometry" />
        </mxCell>
        <mxCell id="KZY9slWV231hrfaIXA2l-5" value="&lt;font style=&quot;font-size: 18px&quot;&gt;MegaMerge&lt;/font&gt;" style="ellipse;whiteSpace=wrap;html=1;fillColor=#99FF99;" vertex="1" parent="1">
          <mxGeometry x="380" y="480" width="200" height="90" as="geometry" />
        </mxCell>
        <mxCell id="KZY9slWV231hrfaIXA2l-6" value="&lt;font style=&quot;font-size: 18px&quot;&gt;System&lt;/font&gt;" style="shape=umlActor;verticalLabelPosition=bottom;verticalAlign=top;html=1;outlineConnect=0;fillColor=#FF9999;" vertex="1" parent="1">
          <mxGeometry x="200" y="280" width="60" height="120" as="geometry" />
        </mxCell>
      </root>
    </mxGraphModel>
  </diagram>
</mxfile>
